<?xml version="1.0" encoding="UTF-8" standalone="no"?>
<!-- Created with Inkscape (http://www.inkscape.org/) -->

<svg
   version="1.1"
   id="svg1"
   width="505.97467"
   height="305.98401"
   viewBox="0 0 505.97467 305.98401"
   xmlns="http://www.w3.org/2000/svg"
   xmlns:svg="http://www.w3.org/2000/svg">
  <defs
     id="defs1">
    <clipPath
       clipPathUnits="userSpaceOnUse"
       id="clipPath2">
      <path
         d="M 0,229.488 H 379.481 V 0 H 0 Z"
         transform="translate(-280.71871,-127.9468)"
         id="path2" />
    </clipPath>
    <clipPath
       clipPathUnits="userSpaceOnUse"
       id="clipPath4">
      <path
         d="M 0,229.488 H 379.481 V 0 H 0 Z"
         transform="translate(-58.240702,-149.62941)"
         id="path4" />
    </clipPath>
    <clipPath
       clipPathUnits="userSpaceOnUse"
       id="clipPath6">
      <path
         d="M 0,229.488 H 379.481 V 0 H 0 Z"
         transform="translate(-64.889201,-91.3711)"
         id="path6" />
    </clipPath>
    <clipPath
       clipPathUnits="userSpaceOnUse"
       id="clipPath8">
      <path
         d="M 0,229.488 H 379.481 V 0 H 0 Z"
         transform="translate(-71.100102,-89.242202)"
         id="path8" />
    </clipPath>
    <clipPath
       clipPathUnits="userSpaceOnUse"
       id="clipPath10">
      <path
         d="M 0,229.488 H 379.481 V 0 H 0 Z"
         transform="translate(-78.986799,-86.793002)"
         id="path10" />
    </clipPath>
    <clipPath
       clipPathUnits="userSpaceOnUse"
       id="clipPath12">
      <path
         d="M 0,229.488 H 379.481 V 0 H 0 Z"
         transform="translate(-84.459505,-89.804702)"
         id="path12" />
    </clipPath>
    <clipPath
       clipPathUnits="userSpaceOnUse"
       id="clipPath14">
      <path
         d="M 0,229.488 H 379.481 V 0 H 0 Z"
         transform="translate(-89.4985,-93.836005)"
         id="path14" />
    </clipPath>
    <clipPath
       clipPathUnits="userSpaceOnUse"
       id="clipPath16">
      <path
         d="M 0,229.488 H 379.481 V 0 H 0 Z"
         transform="translate(-94.205605,-88.492202)"
         id="path16" />
    </clipPath>
    <clipPath
       clipPathUnits="userSpaceOnUse"
       id="clipPath18">
      <path
         d="M 0,229.488 H 379.481 V 0 H 0 Z"
         transform="translate(-97.354,-93.836005)"
         id="path18" />
    </clipPath>
    <clipPath
       clipPathUnits="userSpaceOnUse"
       id="clipPath20">
      <path
         d="M 0,229.488 H 379.481 V 0 H 0 Z"
         transform="translate(-109.3579,-91.308602)"
         id="path20" />
    </clipPath>
    <clipPath
       clipPathUnits="userSpaceOnUse"
       id="clipPath22">
      <path
         d="M 0,229.488 H 379.481 V 0 H 0 Z"
         transform="translate(-119.9985,-92.011802)"
         id="path22" />
    </clipPath>
    <clipPath
       clipPathUnits="userSpaceOnUse"
       id="clipPath24">
      <path
         d="M 0,229.488 H 379.481 V 0 H 0 Z"
         transform="translate(-126.5923,-86.2657)"
         id="path24" />
    </clipPath>
    <clipPath
       clipPathUnits="userSpaceOnUse"
       id="clipPath26">
      <path
         d="M 0,229.488 H 379.481 V 0 H 0 Z"
         transform="translate(-135.85401,-91.7227)"
         id="path26" />
    </clipPath>
    <clipPath
       clipPathUnits="userSpaceOnUse"
       id="clipPath28">
      <path
         d="M 0,229.488 H 379.481 V 0 H 0 Z"
         transform="translate(-142.3813,-91.7227)"
         id="path28" />
    </clipPath>
    <clipPath
       clipPathUnits="userSpaceOnUse"
       id="clipPath30">
      <path
         d="M 0,229.488 H 379.481 V 0 H 0 Z"
         transform="translate(-145.4985,-87.308605)"
         id="path30" />
    </clipPath>
    <clipPath
       clipPathUnits="userSpaceOnUse"
       id="clipPath32">
      <path
         d="M 0,229.488 H 379.481 V 0 H 0 Z"
         transform="translate(-150.31491,-93.836005)"
         id="path32" />
    </clipPath>
    <clipPath
       clipPathUnits="userSpaceOnUse"
       id="clipPath34">
      <path
         d="M 0,229.488 H 379.481 V 0 H 0 Z"
         transform="translate(-164.89311,-86.793002)"
         id="path34" />
    </clipPath>
    <clipPath
       clipPathUnits="userSpaceOnUse"
       id="clipPath36">
      <path
         d="M 0,229.488 H 379.481 V 0 H 0 Z"
         transform="translate(-167.7915,-90.121105)"
         id="path36" />
    </clipPath>
    <clipPath
       clipPathUnits="userSpaceOnUse"
       id="clipPath38">
      <path
         d="M 0,229.488 H 379.481 V 0 H 0 Z"
         transform="translate(-178.8618,-91.3711)"
         id="path38" />
    </clipPath>
    <clipPath
       clipPathUnits="userSpaceOnUse"
       id="clipPath40">
      <path
         d="M 0,229.488 H 379.481 V 0 H 0 Z"
         transform="translate(-185.92041,-91.7227)"
         id="path40" />
    </clipPath>
    <clipPath
       clipPathUnits="userSpaceOnUse"
       id="clipPath42">
      <path
         d="M 0,229.488 H 379.481 V 0 H 0 Z"
         transform="translate(-191.6016,-89.242202)"
         id="path42" />
    </clipPath>
    <clipPath
       clipPathUnits="userSpaceOnUse"
       id="clipPath44">
      <path
         d="M 0,229.488 H 379.481 V 0 H 0 Z"
         transform="translate(-199.3105,-88.492202)"
         id="path44" />
    </clipPath>
    <clipPath
       clipPathUnits="userSpaceOnUse"
       id="clipPath46">
      <path
         d="M 0,229.488 H 379.481 V 0 H 0 Z"
         transform="translate(-201.9805,-93.836005)"
         id="path46" />
    </clipPath>
    <clipPath
       clipPathUnits="userSpaceOnUse"
       id="clipPath48">
      <path
         d="M 0,229.488 H 379.481 V 0 H 0 Z"
         transform="translate(-214.33011,-93.836005)"
         id="path48" />
    </clipPath>
    <clipPath
       clipPathUnits="userSpaceOnUse"
       id="clipPath50">
      <path
         d="M 0,229.488 H 379.481 V 0 H 0 Z"
         transform="translate(-219.0391,-88.492202)"
         id="path50" />
    </clipPath>
    <clipPath
       clipPathUnits="userSpaceOnUse"
       id="clipPath52">
      <path
         d="M 0,229.488 H 379.481 V 0 H 0 Z"
         transform="translate(-226.1074,-86.793002)"
         id="path52" />
    </clipPath>
    <clipPath
       clipPathUnits="userSpaceOnUse"
       id="clipPath54">
      <path
         d="M 0,229.488 H 379.481 V 0 H 0 Z"
         transform="translate(-187.8882,-115.5547)"
         id="path54" />
    </clipPath>
    <clipPath
       clipPathUnits="userSpaceOnUse"
       id="clipPath56">
      <path
         d="M 0,229.488 H 379.481 V 0 H 0 Z"
         transform="translate(-222.74221,-105.30471)"
         id="path56" />
    </clipPath>
    <clipPath
       clipPathUnits="userSpaceOnUse"
       id="clipPath58">
      <path
         d="M 0,229.488 H 379.481 V 0 H 0 Z"
         transform="translate(-77.631302,-130.6495)"
         id="path58" />
    </clipPath>
    <clipPath
       clipPathUnits="userSpaceOnUse"
       id="clipPath60">
      <path
         d="M 0,229.488 H 379.481 V 0 H 0 Z"
         transform="translate(-127.5801,-134.95371)"
         id="path60" />
    </clipPath>
    <clipPath
       clipPathUnits="userSpaceOnUse"
       id="clipPath62">
      <path
         d="M 0,229.488 H 379.481 V 0 H 0 Z"
         transform="translate(-158.10111,-117.9273)"
         id="path62" />
    </clipPath>
    <clipPath
       clipPathUnits="userSpaceOnUse"
       id="clipPath64">
      <path
         d="M 0,229.488 H 379.481 V 0 H 0 Z"
         transform="translate(-278.71681,-136.8555)"
         id="path64" />
    </clipPath>
    <clipPath
       clipPathUnits="userSpaceOnUse"
       id="clipPath66">
      <path
         d="M 0,229.488 H 379.481 V 0 H 0 Z"
         transform="translate(-299.09371,-130.6495)"
         id="path66" />
    </clipPath>
    <clipPath
       clipPathUnits="userSpaceOnUse"
       id="clipPath68">
      <path
         d="M 0,229.488 H 379.481 V 0 H 0 Z"
         transform="translate(-239.94921,-85.628905)"
         id="path68" />
    </clipPath>
  </defs>
  <g
     id="layer-MC0">
    <path
       id="path1"
       d="M 0,0 -0.004,0.17 -0.34,0.146 C -0.225,0.096 -0.117,0.053 0,0 Z"
       style="fill:none;stroke:#100f0d;stroke-width:0.08;stroke-linecap:butt;stroke-linejoin:miter;stroke-miterlimit:4;stroke-dasharray:none;stroke-opacity:1"
       transform="matrix(1.3333333,0,0,-1.3333333,374.2916,135.38827)"
       clip-path="url(#clipPath2)" />
    <path
       id="path3"
       d="m 0,0 h 271 l -10.333,-63.666 -68.334,2.334 65,1.332 11.167,57.167 H 181.333 L 3.167,-3.333 -8,-57.832 Z"
       style="fill:#8f8b8d;fill-opacity:1;fill-rule:nonzero;stroke:none"
       transform="matrix(1.3333333,0,0,-1.3333333,77.654267,106.47813)"
       clip-path="url(#clipPath4)" />
    <path
       id="path5"
       d="M 0,0 -3.008,-5.137 -4.27,0 -5.152,-4.992 h -1.2 l 1.313,7.457 h 1.887 l 1.058,-3.906 2.367,3.906 H 2.129 L 0.816,-4.992 h -1.695 z"
       style="fill:#8f8b8d;fill-opacity:1;fill-rule:nonzero;stroke:none"
       transform="matrix(1.3333333,0,0,-1.3333333,86.518933,184.15587)"
       clip-path="url(#clipPath6)" />
    <path
       id="path7"
       d="M 0,0 -0.578,3.184 -2.227,0 Z m -2.816,-1.086 -0.93,-1.777 h -1.168 l 3.891,7.457 H 0.879 L 2.191,-2.863 H 0.496 L 0.16,-1.086 Z"
       style="fill:#8f8b8d;fill-opacity:1;fill-rule:nonzero;stroke:none"
       transform="matrix(1.3333333,0,0,-1.3333333,94.800133,186.9944)"
       clip-path="url(#clipPath8)" />
    <path
       id="path9"
       d="m 0,0 c -0.018,-0.055 -0.23,-0.145 -0.635,-0.27 -0.404,-0.125 -0.887,-0.193 -1.447,-0.207 -0.708,0 -1.278,0.098 -1.709,0.289 -0.431,0.194 -0.742,0.473 -0.932,0.836 -0.19,0.366 -0.285,0.823 -0.285,1.371 0,0.436 0.059,0.954 0.176,1.551 0.154,0.75 0.377,1.381 0.672,1.889 0.294,0.51 0.701,0.906 1.219,1.189 0.518,0.286 1.173,0.432 1.964,0.442 0.472,0 0.89,-0.035 1.254,-0.108 0.365,-0.07 0.624,-0.13 0.778,-0.181 L 1.152,5.539 C 1.03,5.637 0.802,5.756 0.469,5.898 0.135,6.043 -0.283,6.113 -0.785,6.113 -1.475,6.113 -1.981,5.873 -2.303,5.389 -2.624,4.906 -2.849,4.301 -2.977,3.57 -3.083,2.945 -3.137,2.449 -3.137,2.082 c 0,-1.012 0.362,-1.541 1.086,-1.586 0.487,0 0.903,0.047 1.248,0.139 0.346,0.093 0.618,0.197 0.819,0.314 0.182,0.106 0.273,0.162 0.273,0.172 H 0.285 Z"
       style="fill:#8f8b8d;fill-opacity:1;fill-rule:nonzero;stroke:none"
       transform="matrix(1.3333333,0,0,-1.3333333,105.31573,190.26)"
       clip-path="url(#clipPath10)" />
    <path
       id="path11"
       d="m 0,0 h -2.512 l -0.609,-3.426 h -1.695 l 1.312,7.457 h 1.695 L -2.352,0.926 H 0.16 l 0.543,3.105 h 1.68 L 1.07,-3.426 h -1.679 z"
       style="fill:#8f8b8d;fill-opacity:1;fill-rule:nonzero;stroke:none"
       transform="matrix(1.3333333,0,0,-1.3333333,112.61267,186.2444)"
       clip-path="url(#clipPath12)" />
    <path
       id="path13"
       d="M 0,0 -1.312,-7.457 H -3.008 L -1.695,0 Z"
       style="fill:#8f8b8d;fill-opacity:1;fill-rule:nonzero;stroke:none"
       transform="matrix(1.3333333,0,0,-1.3333333,119.33133,180.86933)"
       clip-path="url(#clipPath14)" />
    <path
       id="path15"
       d="M 0,0 0.941,5.328 H 2.16 L 0.848,-2.129 h -1.985 l -1.73,5.664 -0.992,-5.648 h -1.2 l 1.313,7.457 h 2.098 z"
       style="fill:#8f8b8d;fill-opacity:1;fill-rule:nonzero;stroke:none"
       transform="matrix(1.3333333,0,0,-1.3333333,125.60747,187.9944)"
       clip-path="url(#clipPath16)" />
    <path
       id="path17"
       d="M 0,0 H 5.074 L 4.914,-0.93 H 1.535 L 1.152,-3.106 H 3.969 L 3.809,-4.031 H 0.992 L 0.543,-6.527 h 3.426 l -0.16,-0.93 h -5.121 z"
       style="fill:#8f8b8d;fill-opacity:1;fill-rule:nonzero;stroke:none"
       transform="matrix(1.3333333,0,0,-1.3333333,129.80533,180.86933)"
       clip-path="url(#clipPath18)" />
    <path
       id="path19"
       d="m 0,0 c 0.029,0 0.151,0.057 0.367,0.168 0.216,0.113 0.421,0.258 0.613,0.437 0.193,0.18 0.309,0.383 0.348,0.61 0,0.582 -0.326,0.879 -0.976,0.894 -0.201,0 -0.387,-0.099 -0.557,-0.3 -0.171,-0.2 -0.273,-0.399 -0.307,-0.594 0,-0.315 0.059,-0.561 0.176,-0.738 z m -1.168,-1.344 c -0.026,-0.015 -0.092,-0.058 -0.197,-0.131 -0.106,-0.07 -0.207,-0.17 -0.303,-0.298 -0.096,-0.127 -0.164,-0.293 -0.203,-0.5 0,-0.487 0.121,-0.905 0.365,-1.254 0.244,-0.348 0.586,-0.571 1.026,-0.668 0.39,0 0.785,0.125 1.183,0.371 z M 3.793,-4.93 H 1.711 l -0.496,0.641 h 0.004 c 0,-0.012 -0.098,-0.082 -0.293,-0.207 -0.216,-0.141 -0.512,-0.266 -0.887,-0.379 -0.375,-0.111 -0.836,-0.168 -1.383,-0.168 -0.234,0 -0.416,0.006 -0.547,0.016 -1.109,0.084 -1.664,0.629 -1.664,1.632 0,0.207 0.022,0.415 0.067,0.625 0.078,0.418 0.326,0.805 0.744,1.161 0.418,0.357 0.831,0.632 1.24,0.824 0,0.012 -0.041,0.08 -0.125,0.207 -0.083,0.129 -0.154,0.234 -0.211,0.32 -0.182,0.317 -0.273,0.621 -0.273,0.914 0,0.184 0.021,0.36 0.062,0.528 0.065,0.261 0.217,0.513 0.455,0.759 0.239,0.246 0.523,0.446 0.854,0.596 0.33,0.152 0.657,0.227 0.98,0.227 0.594,0 1.063,-0.125 1.407,-0.377 C 1.988,2.139 2.16,1.742 2.16,1.199 2.066,0.711 1.811,0.318 1.395,0.023 0.978,-0.27 0.641,-0.465 0.383,-0.562 l 1.68,-2.223 c 0.005,0.006 0.044,0.041 0.117,0.105 0.072,0.067 0.149,0.151 0.228,0.256 0.08,0.106 0.151,0.231 0.213,0.373 0.086,0.254 0.129,0.563 0.129,0.93 H 3.406 C 3.406,-1.6 3.337,-1.984 3.199,-2.273 3.074,-2.51 2.924,-2.729 2.748,-2.93 2.572,-3.129 2.466,-3.236 2.43,-3.25 Z"
       style="fill:#8f8b8d;fill-opacity:1;fill-rule:nonzero;stroke:none"
       transform="matrix(1.3333333,0,0,-1.3333333,145.81053,184.2392)"
       clip-path="url(#clipPath20)" />
    <path
       id="path21"
       d="m 0,0 c 0,-0.268 0.1,-0.443 0.301,-0.529 0.2,-0.084 0.618,-0.215 1.252,-0.393 0.634,-0.176 1.104,-0.389 1.41,-0.635 0.306,-0.246 0.459,-0.617 0.459,-1.115 0,-0.064 -0.01,-0.193 -0.031,-0.387 C 3.26,-3.949 2.941,-4.594 2.434,-4.992 1.926,-5.391 1.248,-5.619 0.398,-5.68 0.271,-5.689 0.09,-5.695 -0.145,-5.695 c -0.557,0 -1.064,0.058 -1.523,0.174 -0.458,0.117 -0.687,0.191 -0.687,0.224 l -0.094,1.137 c 0.008,0 0.118,-0.049 0.33,-0.151 0.212,-0.099 0.47,-0.191 0.773,-0.273 0.304,-0.082 0.651,-0.127 1.041,-0.139 0.633,0 1.078,0.104 1.334,0.311 0.257,0.207 0.42,0.516 0.491,0.924 0.021,0.152 0.031,0.254 0.031,0.304 0,0.371 -0.134,0.62 -0.401,0.748 -0.267,0.129 -0.681,0.248 -1.244,0.356 -0.562,0.109 -0.989,0.262 -1.279,0.457 -0.29,0.197 -0.436,0.535 -0.436,1.014 0,0.185 0.021,0.379 0.063,0.578 0.135,0.638 0.46,1.111 0.975,1.42 0.514,0.308 1.133,0.48 1.857,0.513 0.763,0 1.353,-0.043 1.769,-0.131 C 3.272,1.686 3.547,1.611 3.68,1.551 L 3.773,0.352 3.492,0.492 C 3.299,0.586 3.047,0.672 2.734,0.748 2.422,0.826 2.043,0.863 1.598,0.863 1.163,0.863 0.811,0.811 0.543,0.705 0.275,0.6 0.094,0.365 0,0"
       style="fill:#8f8b8d;fill-opacity:1;fill-rule:nonzero;stroke:none"
       transform="matrix(1.3333333,0,0,-1.3333333,159.998,183.3016)"
       clip-path="url(#clipPath22)" />
    <path
       id="path23"
       d="m 0,0 c -1.75,0 -2.625,0.588 -2.625,1.762 0,0.154 0.037,0.437 0.109,0.847 L -1.648,7.57 H 0.078 L -0.785,2.625 C -0.793,2.586 -0.805,2.533 -0.82,2.467 -0.836,2.4 -0.85,2.326 -0.863,2.242 -0.876,2.16 -0.883,2.068 -0.883,1.969 c 0,-0.651 0.417,-0.977 1.25,-0.977 0.37,0 0.666,0.067 0.887,0.197 0.221,0.133 0.381,0.293 0.48,0.481 0.099,0.189 0.162,0.385 0.19,0.584 0.027,0.201 0.046,0.34 0.056,0.418 L 2.848,7.57 H 4.27 L 3.406,2.672 C 3.346,2.301 3.289,2.01 3.232,1.799 3.176,1.59 3.042,1.34 2.83,1.049 2.618,0.76 2.28,0.512 1.816,0.307 1.353,0.104 0.747,0 0,0"
       style="fill:#8f8b8d;fill-opacity:1;fill-rule:nonzero;stroke:none"
       transform="matrix(1.3333333,0,0,-1.3333333,168.78973,190.96307)"
       clip-path="url(#clipPath24)" />
    <path
       id="path25"
       d="m 0,0 c 0,0.789 -0.299,1.184 -0.898,1.184 h -1.536 l -0.445,-2.543 h 1.488 c 0.386,0 0.696,0.099 0.93,0.295 C -0.227,-0.867 -0.073,-0.512 0,0 M 1.582,-0.047 C 1.483,-0.658 1.282,-1.129 0.979,-1.459 0.675,-1.787 0.319,-2.006 -0.09,-2.113 c -0.409,-0.106 -0.88,-0.16 -1.414,-0.16 h -1.535 l -0.547,-3.071 h -1.695 l 1.312,7.457 h 3.426 C 0.152,2.113 0.689,1.998 1.066,1.764 1.444,1.531 1.633,1.113 1.633,0.512 1.633,0.34 1.616,0.154 1.582,-0.047"
       style="fill:#8f8b8d;fill-opacity:1;fill-rule:nonzero;stroke:none"
       transform="matrix(1.3333333,0,0,-1.3333333,181.13867,183.68707)"
       clip-path="url(#clipPath26)" />
    <path
       id="path27"
       d="m 0,0 c 0,0.789 -0.299,1.184 -0.898,1.184 h -1.536 l -0.445,-2.543 h 1.488 c 0.386,0 0.696,0.099 0.93,0.295 C -0.227,-0.867 -0.073,-0.512 0,0 M 1.582,-0.047 C 1.482,-0.658 1.281,-1.129 0.979,-1.459 0.675,-1.787 0.319,-2.006 -0.09,-2.113 c -0.409,-0.106 -0.88,-0.16 -1.414,-0.16 h -1.535 l -0.547,-3.071 h -1.695 l 1.312,7.457 h 3.426 C 0.152,2.113 0.689,1.998 1.066,1.764 1.443,1.531 1.633,1.113 1.633,0.512 1.633,0.34 1.615,0.154 1.582,-0.047"
       style="fill:#8f8b8d;fill-opacity:1;fill-rule:nonzero;stroke:none"
       transform="matrix(1.3333333,0,0,-1.3333333,189.84173,183.68707)"
       clip-path="url(#clipPath28)" />
    <path
       id="path29"
       d="m 0,0 h 3.617 l -0.16,-0.93 h -5.312 l 1.312,7.457 h 1.695 z"
       style="fill:#8f8b8d;fill-opacity:1;fill-rule:nonzero;stroke:none"
       transform="matrix(1.3333333,0,0,-1.3333333,193.998,189.57253)"
       clip-path="url(#clipPath30)" />
    <path
       id="path31"
       d="M 0,0 H 1.906 L 3.137,-2.863 5.328,0 H 6.449 L 3.41,-3.824 2.77,-7.457 H 1.074 l 0.641,3.633 z"
       style="fill:#8f8b8d;fill-opacity:1;fill-rule:nonzero;stroke:none"
       transform="matrix(1.3333333,0,0,-1.3333333,200.41987,180.86933)"
       clip-path="url(#clipPath32)" />
    <path
       id="path33"
       d="m 0,0 c -0.019,-0.055 -0.229,-0.145 -0.635,-0.27 -0.405,-0.125 -0.887,-0.193 -1.447,-0.207 -0.708,0 -1.278,0.098 -1.709,0.289 -0.431,0.194 -0.741,0.473 -0.932,0.836 -0.19,0.366 -0.285,0.823 -0.285,1.371 0,0.436 0.059,0.954 0.176,1.551 0.153,0.75 0.378,1.381 0.672,1.889 0.294,0.51 0.7,0.906 1.219,1.189 0.518,0.286 1.172,0.432 1.964,0.442 0.472,0 0.89,-0.035 1.254,-0.108 0.365,-0.07 0.624,-0.13 0.778,-0.181 L 1.152,5.539 C 1.03,5.637 0.802,5.756 0.469,5.898 0.136,6.043 -0.282,6.113 -0.785,6.113 -1.476,6.113 -1.981,5.873 -2.303,5.389 -2.624,4.906 -2.849,4.301 -2.977,3.57 -3.083,2.945 -3.137,2.449 -3.137,2.082 c 0,-1.012 0.363,-1.541 1.086,-1.586 0.488,0 0.904,0.047 1.248,0.139 0.345,0.093 0.618,0.197 0.819,0.314 0.182,0.106 0.273,0.162 0.273,0.172 H 0.285 Z"
       style="fill:#8f8b8d;fill-opacity:1;fill-rule:nonzero;stroke:none"
       transform="matrix(1.3333333,0,0,-1.3333333,219.85747,190.26)"
       clip-path="url(#clipPath34)" />
    <path
       id="path35"
       d="m 0,0 c -0.097,-0.645 -0.145,-1.109 -0.145,-1.391 0,-0.902 0.347,-1.361 1.04,-1.375 0.426,0 0.768,0.131 1.025,0.389 0.257,0.26 0.446,0.582 0.568,0.965 0.122,0.385 0.231,0.846 0.325,1.381 0.106,0.605 0.16,1.074 0.16,1.41 0,0.873 -0.357,1.316 -1.071,1.328 C 1.304,2.707 0.868,2.461 0.598,1.965 0.327,1.471 0.128,0.816 0,0 m 2.063,3.746 c 0.94,0 1.62,-0.199 2.041,-0.598 C 4.524,2.75 4.734,2.145 4.734,1.328 4.734,0.945 4.691,0.504 4.605,0 4.382,-1.299 3.956,-2.258 3.328,-2.877 2.7,-3.494 1.825,-3.805 0.703,-3.805 c -0.883,0 -1.536,0.2 -1.959,0.598 -0.423,0.398 -0.635,1.019 -0.635,1.863 0,0.459 0.043,0.907 0.129,1.344 0.235,1.256 0.665,2.191 1.291,2.809 C 0.155,3.426 1,3.738 2.063,3.746"
       style="fill:#8f8b8d;fill-opacity:1;fill-rule:nonzero;stroke:none"
       transform="matrix(1.3333333,0,0,-1.3333333,223.722,185.82253)"
       clip-path="url(#clipPath36)" />
    <path
       id="path37"
       d="M 0,0 -3.008,-5.137 -4.27,0 -5.152,-4.992 h -1.2 l 1.313,7.457 h 1.887 l 1.058,-3.906 2.367,3.906 H 2.129 L 0.816,-4.992 h -1.695 z"
       style="fill:#8f8b8d;fill-opacity:1;fill-rule:nonzero;stroke:none"
       transform="matrix(1.3333333,0,0,-1.3333333,238.4824,184.15587)"
       clip-path="url(#clipPath38)" />
    <path
       id="path39"
       d="m 0,0 c 0,0.789 -0.3,1.184 -0.898,1.184 h -1.536 l -0.445,-2.543 h 1.488 c 0.386,0 0.696,0.099 0.93,0.295 C -0.227,-0.867 -0.073,-0.512 0,0 M 1.582,-0.047 C 1.483,-0.658 1.282,-1.129 0.979,-1.459 0.675,-1.787 0.319,-2.006 -0.09,-2.113 c -0.409,-0.106 -0.88,-0.16 -1.414,-0.16 h -1.535 l -0.547,-3.071 h -1.695 l 1.312,7.457 h 3.426 C 0.152,2.113 0.689,1.998 1.066,1.764 1.444,1.531 1.633,1.113 1.633,0.512 1.633,0.34 1.616,0.154 1.582,-0.047"
       style="fill:#8f8b8d;fill-opacity:1;fill-rule:nonzero;stroke:none"
       transform="matrix(1.3333333,0,0,-1.3333333,247.89387,183.68707)"
       clip-path="url(#clipPath40)" />
    <path
       id="path41"
       d="M 0,0 -0.58,3.184 -2.228,0 Z m -2.817,-1.086 -0.931,-1.777 h -1.168 l 3.891,7.457 H 0.879 L 2.191,-2.863 H 0.496 l -0.338,1.777 z"
       style="fill:#8f8b8d;fill-opacity:1;fill-rule:nonzero;stroke:none"
       transform="matrix(1.3333333,0,0,-1.3333333,255.4688,186.9944)"
       clip-path="url(#clipPath42)" />
    <path
       id="path43"
       d="M 0,0 0.941,5.328 H 2.162 L 0.85,-2.129 h -1.987 l -1.73,5.664 -0.992,-5.648 h -1.2 l 1.313,7.457 h 2.1 z"
       style="fill:#8f8b8d;fill-opacity:1;fill-rule:nonzero;stroke:none"
       transform="matrix(1.3333333,0,0,-1.3333333,265.74733,187.9944)"
       clip-path="url(#clipPath44)" />
    <path
       id="path45"
       d="M 0,0 H 1.904 L 3.137,-2.863 5.326,0 H 6.447 L 3.408,-3.824 2.768,-7.457 H 1.072 l 0.641,3.633 z"
       style="fill:#8f8b8d;fill-opacity:1;fill-rule:nonzero;stroke:none"
       transform="matrix(1.3333333,0,0,-1.3333333,269.30733,180.86933)"
       clip-path="url(#clipPath46)" />
    <path
       id="path47"
       d="M 0,0 -1.312,-7.457 H -3.008 L -1.695,0 Z"
       style="fill:#8f8b8d;fill-opacity:1;fill-rule:nonzero;stroke:none"
       transform="matrix(1.3333333,0,0,-1.3333333,285.77347,180.86933)"
       clip-path="url(#clipPath48)" />
    <path
       id="path49"
       d="M 0,0 0.941,5.328 H 2.158 L 0.846,-2.129 h -1.985 l -1.73,5.664 -0.992,-5.648 h -1.198 l 1.313,7.457 h 2.096 z"
       style="fill:#8f8b8d;fill-opacity:1;fill-rule:nonzero;stroke:none"
       transform="matrix(1.3333333,0,0,-1.3333333,292.05213,187.9944)"
       clip-path="url(#clipPath50)" />
    <path
       id="path51"
       d="m 0,0 c -0.018,-0.055 -0.229,-0.145 -0.635,-0.27 -0.404,-0.125 -0.886,-0.193 -1.447,-0.207 -0.707,0 -1.277,0.098 -1.707,0.289 -0.432,0.194 -0.742,0.473 -0.934,0.836 -0.189,0.366 -0.283,0.823 -0.283,1.371 0,0.436 0.059,0.954 0.174,1.551 0.154,0.75 0.379,1.381 0.672,1.889 0.295,0.51 0.701,0.906 1.221,1.189 0.517,0.286 1.171,0.432 1.962,0.442 0.473,0 0.891,-0.035 1.254,-0.108 0.366,-0.07 0.625,-0.13 0.78,-0.181 L 1.152,5.539 C 1.031,5.637 0.803,5.756 0.469,5.898 0.137,6.043 -0.281,6.113 -0.785,6.113 -1.475,6.113 -1.98,5.873 -2.303,5.389 -2.623,4.906 -2.848,4.301 -2.977,3.57 -3.082,2.945 -3.135,2.449 -3.135,2.082 c 0,-1.012 0.362,-1.541 1.084,-1.586 0.489,0 0.905,0.047 1.248,0.139 0.346,0.093 0.619,0.197 0.819,0.314 0.183,0.106 0.273,0.162 0.273,0.172 H 0.285 Z"
       style="fill:#8f8b8d;fill-opacity:1;fill-rule:nonzero;stroke:none"
       transform="matrix(1.3333333,0,0,-1.3333333,301.47653,190.26)"
       clip-path="url(#clipPath52)" />
    <path
       id="path53"
       d="m 0,0 h 12.872 l 1.162,6.486 H 5.68 1.16 l 1.461,8.609 h 15.756 l 1.141,6.486 H -8.269 l -2.863,-16.267 -3.863,-21.951 h 28.046 l 1.143,6.487 H -1.803 Z"
       style="fill:#21236a;fill-opacity:1;fill-rule:nonzero;stroke:none"
       transform="matrix(1.3333333,0,0,-1.3333333,250.5176,151.91107)"
       clip-path="url(#clipPath54)" />
    <path
       id="path55"
       d="m 0,0 h -4.906 l 3.244,18.654 1.18,6.791 h 5.246 c 3.826,0 5.98,-1.965 6.463,-5.892 0.068,-0.567 0.103,-1.174 0.103,-1.822 0,-1.576 -0.166,-3.219 -0.5,-4.929 C 9.375,4.268 5.764,0 0,0 m 15.984,2.182 c 1.676,2.857 2.879,6.393 3.614,10.61 0.386,1.896 0.58,3.837 0.58,5.826 0,0.534 -0.018,1.051 -0.051,1.555 -0.223,3.39 -1.191,6.105 -2.912,8.145 -1.975,2.342 -5.004,3.513 -9.088,3.513 h -19.518 l -2.47,-14.027 -4.258,-24.191 H 0.9 c 3.297,0 6.215,0.715 8.758,2.143 2.543,1.428 4.651,3.57 6.326,6.426"
       style="fill:#21236a;fill-opacity:1;fill-rule:nonzero;stroke:none"
       transform="matrix(1.3333333,0,0,-1.3333333,296.9896,165.57773)"
       clip-path="url(#clipPath56)" />
    <path
       id="path57"
       d="m 0,0 h 15.726 l 1.161,6.486 h -27.791 l -4.263,-24.235 -2.46,-13.982 h 12.045 l 2.64,14.834 0.321,1.802 h 12.865 l 1.14,6.487 H -1.48 Z"
       style="fill:#21236a;fill-opacity:1;fill-rule:nonzero;stroke:none"
       transform="matrix(1.3333333,0,0,-1.3333333,103.5084,131.78467)"
       clip-path="url(#clipPath58)" />
    <path
       id="path59"
       d="m 0,0 c -2.049,1.454 -4.795,2.182 -8.238,2.182 h -20.9 l -3.872,-21.996 -2.855,-16.222 h 12.052 l 2.996,17.071 2.589,14.761 h 4.585 c 3.056,0 4.584,-1.529 4.584,-4.588 0,-0.641 -0.08,-1.328 -0.24,-2.062 -0.387,-2.231 -1.241,-3.814 -2.562,-4.749 -1.322,-0.935 -2.63,-1.402 -3.924,-1.402 h -4.665 l 0.673,-1.887 6.134,-17.224 12.952,0.08 -7.287,15.336 c 0.094,0.013 0.651,0.094 1.672,0.24 1.021,0.147 2.135,0.541 3.343,1.181 0.743,0.394 1.465,0.978 2.17,1.711 0.441,0.458 0.877,0.962 1.304,1.552 1.107,1.535 1.882,3.61 2.322,6.226 0.16,1.068 0.24,2.022 0.24,2.863 C 3.073,-3.764 2.049,-1.455 0,0"
       style="fill:#21236a;fill-opacity:1;fill-rule:nonzero;stroke:none"
       transform="matrix(1.3333333,0,0,-1.3333333,170.1068,126.04573)"
       clip-path="url(#clipPath60)" />
    <path
       id="path61"
       d="m 0,0 c -0.693,-4.088 -1.692,-7.324 -2.999,-9.707 -1.306,-2.384 -3.525,-3.576 -6.658,-3.576 -3.492,0.067 -5.239,2.364 -5.239,6.891 0,1.617 0.22,3.801 0.66,6.552 0.026,0.169 0.056,0.328 0.084,0.494 0.605,3.709 1.554,6.725 2.855,9.033 1.36,2.41 3.572,3.616 6.638,3.616 C -1.006,13.236 0.82,11.045 0.82,6.731 0.82,5.389 0.642,3.69 0.299,1.662 0.209,1.127 0.114,0.583 0,0 M 8.729,16.996 C 6.181,19.231 2.071,20.35 -3.599,20.35 -9.881,20.31 -14.843,18.628 -18.484,15.305 -22.126,11.981 -24.566,6.937 -25.807,0.17 c -0.019,-0.115 -0.031,-0.218 -0.05,-0.332 -0.403,-2.53 -0.61,-4.664 -0.61,-6.375 0,-4.697 1.278,-8.171 3.832,-10.42 2.554,-2.25 6.472,-3.373 11.755,-3.373 3.321,0 6.273,0.416 8.855,1.25 2.581,0.834 4.795,2.096 6.643,3.786 1.847,1.687 3.371,3.818 4.571,6.394 1.201,2.576 2.101,5.6 2.702,9.07 0.139,0.815 0.249,1.581 0.344,2.324 0.205,1.605 0.316,3.054 0.316,4.322 0,4.551 -1.274,7.945 -3.822,10.18"
       style="fill:#21236a;fill-opacity:1;fill-rule:nonzero;stroke:none"
       transform="matrix(1.3333333,0,0,-1.3333333,210.80147,148.7476)"
       clip-path="url(#clipPath62)" />
    <path
       id="path63"
       d="m 0,0 c -1.228,0.294 -2.895,0.564 -5.002,0.811 -2.107,0.247 -4.549,0.37 -7.324,0.37 -9.067,-0.245 -15.279,-4.326 -18.656,-12.219 -0.848,-1.977 -1.524,-4.183 -2.012,-6.639 -0.6,-3.177 -0.901,-5.86 -0.901,-8.048 0,-2.871 0.504,-5.283 1.51,-7.238 1.008,-1.955 2.631,-3.435 4.873,-4.443 2.242,-1.008 5.168,-1.512 8.784,-1.512 2.88,0 5.58,0.24 8.093,0.721 2.516,0.48 4.569,1.013 6.162,1.601 1.594,0.586 2.391,0.934 2.391,1.041 l 2.541,14.434 h -9.107 l -1.723,-9.689 c -0.508,-0.174 -1.402,-0.395 -2.682,-0.661 -1.283,-0.267 -2.797,-0.4 -4.547,-0.4 -3.214,0.279 -4.824,2.416 -4.824,6.406 0,1.815 0.301,4.358 0.901,7.628 0.586,3.216 1.576,5.766 2.962,7.665 0.104,0.142 0.204,0.288 0.313,0.423 1.553,1.935 3.826,3.036 6.816,3.303 1.2,0.106 2.047,0.16 2.541,0.16 2.03,0 3.821,-0.197 5.375,-0.59 1.471,-0.373 3.204,-1.007 5.178,-1.886 L 1.998,-8.739 1.84,-0.54 C 1.84,-0.474 1.227,-0.294 0,0"
       style="fill:#21236a;fill-opacity:1;fill-rule:nonzero;stroke:none"
       transform="matrix(1.3333333,0,0,-1.3333333,371.6224,123.51)"
       clip-path="url(#clipPath64)" />
    <path
       id="path65"
       d="m 0,0 h 15.758 l 1.14,6.486 h -27.789 l -1.5,-8.528 -0.013,-0.074 -5.213,-29.615 h 28.049 l 1.142,6.486 H -4.424 l 1.803,10.15 H 10.25 l 1.162,6.487 H -1.459 l 1.254,7.397 z"
       style="fill:#21236a;fill-opacity:1;fill-rule:nonzero;stroke:none"
       transform="matrix(1.3333333,0,0,-1.3333333,398.7916,131.78467)"
       clip-path="url(#clipPath66)" />
    <path
       id="path67"
       d="M 0,0 C -1.863,0 -3.375,1.512 -3.375,3.375 -3.375,5.24 -1.863,6.75 0,6.75 1.863,6.75 3.375,5.24 3.375,3.375 3.375,1.512 1.863,0 0,0 M 9.281,2.631 9.207,4.756 5.82,4.639 C 5.662,5.379 5.365,6.068 4.957,6.678 L 7.396,9.029 5.922,10.561 3.48,8.205 C 2.773,8.715 1.953,9.074 1.062,9.234 v 3.391 H -1.062 V 9.234 C -1.949,9.074 -2.766,8.719 -3.469,8.213 L -5.83,10.502 -7.309,8.975 -4.951,6.691 C -5.436,5.969 -5.76,5.135 -5.889,4.236 L -9.178,4.123 -9.104,2 -5.82,2.111 c 0.158,-0.74 0.455,-1.429 0.863,-2.039 l -2.365,-2.279 1.474,-1.529 2.368,2.281 c 0.707,-0.51 1.527,-0.867 2.418,-1.027 V -5.77 h 2.124 v 3.288 c 0.887,0.16 1.704,0.513 2.407,1.019 l 2.437,-2.359 1.477,1.525 -2.432,2.358 c 0.485,0.72 0.809,1.556 0.938,2.455 z"
       style="fill:#21236a;fill-opacity:1;fill-rule:nonzero;stroke:none"
       transform="matrix(1.3333333,0,0,-1.3333333,319.93227,191.81213)"
       clip-path="url(#clipPath68)" />
  </g>
</svg>
